<svg id="Layer_5" enable-background="new 0 0 64 64" height="512" viewBox="0 0 64 64" width="512" xmlns="http://www.w3.org/2000/svg"><g><path d="m11 51h-2c-2.206 0-4 1.794-4 4s1.794 4 4 4h2c2.206 0 4-1.794 4-4s-1.794-4-4-4zm0 6h-2c-1.103 0-2-.897-2-2s.897-2 2-2h2c1.103 0 2 .897 2 2s-.897 2-2 2z"/><path d="m11 45c2.206 0 4-1.794 4-4s-1.794-4-4-4h-2c-2.206 0-4 1.794-4 4s1.794 4 4 4zm-4-4c0-1.103.897-2 2-2h2c1.103 0 2 .897 2 2s-.897 2-2 2h-2c-1.103 0-2-.897-2-2z"/><path d="m61 27v-9.236l-3.658-7.316c-.446-.893-1.343-1.448-2.342-1.448-.792 0-1.51.359-2 .949v-8.949h-14v14.662l-1.132-3.209-7.454-7.453h-1c-1.179 0-2.288.459-3.121 1.293l-.293.293v10.595l3.682 9.819h-.682c-1.103 0-2 .897-2 2v4c0 1.103.897 2 2 2h1.133l.857 6h-4.886c-1.131 0-2.24-.389-3.124-1.096l-4.452-3.562c-2.694-2.155-6.077-3.342-9.528-3.342-4.411 0-8 3.589-8 8 0 3.008 1.669 5.634 4.13 7-2.461 1.366-4.13 3.992-4.13 7 0 4.411 3.589 8 8 8 3.451 0 6.834-1.187 9.529-3.343l4.452-3.562c.884-.706 1.993-1.095 3.123-1.095h6.885l.53 3.708c.35 2.447 2.478 4.292 4.95 4.292h13.062c2.472 0 4.6-1.845 4.95-4.292l.897-6.278c1.641-1 3.127-2.273 4.391-3.79l.533-.64-.534-.64c-.958-1.149-2.054-2.141-3.238-2.998l1.337-9.362h1.133c1.103 0 2-.897 2-2v-4c0-1.103-.897-2-2-2zm-10 0v-8h8v8zm3.447-15.659c.211-.421.895-.421 1.105 0l2.83 5.659h-6.764zm-3.447-8.341v10.764l-2 4v9.236h-8v-4h6v-2h-6v-2h4v-2h-4v-2h6v-2h-6v-2h4v-2h-4v-2h6v-2h-6v-2zm-12 18.671v5.329h-1.323l-4.549-11.374 3.276-1.31zm-9.586-14.671h.172l5.634 5.635-7.22 2.888v-8.065c.409-.294.907-.458 1.414-.458zm-1.134 10.565 2.99-1.196 4.253 10.631h-3.704zm19.91 25.435c3.896 0 7.594 1.44 10.449 4h-26.781c-.447-1.72-2-3-3.858-3-.732 0-1.409.212-2 .556v-1.565c.035.001.069.009.104.009zm-18.19 5c0 1.103-.897 2-2 2s-2-.897-2-2 .897-2 2-2 2 .897 2 2zm-27-7c0-3.309 2.691-6 6-6 2.998 0 5.938 1.031 8.28 2.904l4.452 3.562c.676.541 1.45.934 2.268 1.193v4.341h-15c-3.309 0-6-2.691-6-6zm18.732 13.534-4.452 3.562c-2.342 1.873-5.282 2.904-8.28 2.904-3.309 0-6-2.691-6-6s2.691-6 6-6h15v4.341c-.818.259-1.592.653-2.268 1.193zm4.268-1.525v-1.565c.591.344 1.268.556 2 .556 1.858 0 3.411-1.28 3.858-3h26.781c-2.855 2.56-6.553 4-10.449 4h-22.086c-.035 0-.069.008-.104.009zm28.501 5.415c-.21 1.469-1.487 2.576-2.97 2.576h-13.062c-1.483 0-2.76-1.107-2.97-2.576l-.489-3.424h13.18c2.45 0 4.824-.522 7.01-1.467zm2.176-15.23c-2.571-1.41-5.472-2.194-8.487-2.194h-15.18l-.857-6h25.694zm-27.677-10.194v-4h32l.001 4z"/></g></svg>